<svg width="16" height="16" viewBox="0 0 16 16" fill="none" xmlns="http://www.w3.org/2000/svg">
                            <g clip-path="url(#clip0_2_1100)">
                                <path d="M0.755713 0.0562501C0.452588 0.1625 0.174463 0.4375 0.0557128 0.75C-0.00366216 0.90625 -0.00366216 0.990625 0.00258784 2.7125L0.0119628 4.51563L0.118213 4.7125C0.246338 4.94688 0.440088 5.13438 0.677588 5.24375L0.855713 5.32812H3.66821H6.48071L6.66821 5.2375C6.90571 5.11875 7.11509 4.90938 7.23384 4.67188L7.32446 4.48438V2.67188V0.859375L7.24009 0.68125C7.13071 0.44375 6.94321 0.25 6.70884 0.121875L6.51196 0.0156255L3.71509 0.0093751C1.09321 0.00312519 0.908838 0.00625038 0.755713 0.0562501Z" fill="#7D7D7E" />
                                <path d="M9.45849 0.0437499C9.13974 0.159375 8.88974 0.384375 8.74912 0.684375L8.66787 0.859375V4.67187V8.48437L8.75849 8.67187C8.87724 8.90937 9.08662 9.11875 9.32412 9.2375L9.51162 9.32812H12.3241H15.1366L15.3147 9.24375C15.5522 9.13437 15.746 8.94687 15.8741 8.7125L15.9804 8.51562V4.67187V0.828125L15.896 0.65625C15.7866 0.434375 15.5616 0.209375 15.3397 0.0999999L15.1679 0.0156249L12.371 0.00937486C10.1241 0.00312486 9.55224 0.00937486 9.45849 0.0437499Z" fill="#7D7D7E" />
                                <path d="M0.81787 6.7C0.508495 6.8 0.26162 7.00937 0.0991196 7.31875L0.0116196 7.48438V11.3281V15.1719L0.0959946 15.3438C0.20537 15.5656 0.43037 15.7906 0.652245 15.9L0.82412 15.9844H3.66787H6.51162L6.70849 15.8781C6.94287 15.75 7.13037 15.5563 7.23974 15.3187L7.32412 15.1406V11.3281V7.51562L7.23349 7.32812C7.11474 7.09062 6.90537 6.88125 6.66787 6.7625L6.48037 6.67188L3.71474 6.66562C1.48974 6.6625 0.92412 6.66875 0.81787 6.7Z" fill="#7D7D7E" />
                                <path d="M9.43964 10.7188C9.20839 10.8031 9.00214 10.9594 8.86152 11.1563C8.64589 11.4656 8.64902 11.4438 8.65839 13.3938L8.66777 15.1406L8.75214 15.3188C8.86152 15.5563 9.04902 15.75 9.28339 15.8781L9.48027 15.9844H12.324H15.1678L15.3396 15.9C15.5615 15.7906 15.7865 15.5656 15.8959 15.3438L15.9803 15.1719V13.3281V11.4844L15.874 11.2875C15.7459 11.0531 15.5521 10.8656 15.3146 10.7563L15.1365 10.6719L12.3709 10.6656C9.71152 10.6594 9.59902 10.6594 9.43964 10.7188Z" fill="#7D7D7E" />
                            </g>
                            <defs>
                                <clipPath id="clip0_2_1100">
                                    <rect width="16" height="16" fill="white" />
                                </clipPath>
                            </defs>
                        </svg>