<svg width="16" height="16" viewBox="0 0 16 16" fill="none" xmlns="http://www.w3.org/2000/svg">
                            <path d="M9.43004 0C5.8181 0 2.88563 2.92922 2.88563 6.54441C2.88563 7.51648 3.09695 8.43979 3.47732 9.26881L1.04227 11.3983C-0.732819 13.2254 0.26526 14.8151 0.736666 15.2866C1.17556 15.7612 2.8141 16.7658 4.62495 14.9809L6.77066 12.5231C7.58343 12.884 8.48073 13.0856 9.42679 13.0856C13.042 13.0856 15.9712 10.1564 15.9712 6.54116C15.9712 2.92597 13.0452 0 9.43004 0ZM9.43004 11.7201C6.57234 11.7201 4.25433 9.40211 4.25433 6.54441C4.25433 3.68672 6.57234 1.3687 9.43004 1.3687C12.2877 1.3687 14.6058 3.68672 14.6058 6.54441C14.6058 9.40211 12.291 11.7201 9.43004 11.7201Z" fill="#7D7D7E" />
                        </svg>