<svg width="14" height="16" viewBox="0 0 14 16" fill="none" xmlns="http://www.w3.org/2000/svg">
                                    <path d="M1.78125 0.518806C1.14375 0.656306 0.65 1.15318 0.515625 1.79693C0.475 1.98443 0.46875 2.84068 0.46875 7.96881C0.46875 11.8188 0.48125 13.9938 0.5 14.1251C0.6 14.7594 1.14688 15.3376 1.775 15.4657C1.89062 15.4907 3.45 15.5001 6.94688 15.5001C12.4531 15.5001 12.1562 15.5094 12.5344 15.3063C12.9469 15.0876 13.3031 14.5876 13.375 14.1251C13.3938 13.9938 13.4062 12.2032 13.4062 9.15006V4.37818L11.8219 4.36881L10.2344 4.35943L10.0563 4.27193C9.84062 4.16568 9.65312 3.98443 9.55625 3.78756C9.48438 3.64068 9.48438 3.64068 9.475 2.05318L9.46562 0.468806L5.725 0.471931C2.63438 0.471931 1.95 0.481306 1.78125 0.518806ZM10.1969 7.54068C10.475 7.72193 10.4656 8.11568 10.1813 8.27193C10.0844 8.32506 9.9 8.32818 6.89062 8.32818C3.88125 8.32818 3.69688 8.32506 3.6 8.27193C3.27188 8.09381 3.32188 7.60943 3.675 7.50006C3.725 7.48443 5.19375 7.47506 6.9375 7.47818C9.94063 7.48443 10.1156 7.48756 10.1969 7.54068ZM9.14375 9.38131C9.34062 9.59693 9.27812 9.90318 9.01562 10.0313C8.89062 10.0907 8.8125 10.0938 6.30938 10.0938C3.91875 10.0938 3.725 10.0907 3.625 10.0376C3.32188 9.88756 3.29375 9.48131 3.57188 9.31256C3.66875 9.25006 3.7375 9.25006 6.35313 9.25631L9.0375 9.26568L9.14375 9.38131ZM9.70312 11.0938C9.94375 11.3188 9.91875 11.6157 9.65 11.7813C9.55 11.8438 9.48438 11.8438 6.63125 11.8438C4.1875 11.8438 3.70312 11.8376 3.63125 11.8001C3.31562 11.6344 3.29375 11.2188 3.59687 11.0563C3.69688 11.0032 3.84063 11.0001 6.6625 11.0063L9.61875 11.0157L9.70312 11.0938Z" fill="#7D7D7E" />
                                    <path d="M10.3125 2.09113V3.46925L10.3938 3.5005C10.4938 3.54113 13.125 3.54113 13.125 3.50363C13.125 3.488 12.4938 2.85363 11.7188 2.09425L10.3125 0.713001V2.09113Z" fill="#7D7D7E" />
                                </svg>